<?xml version="1.0" encoding="utf-8"?>
<!-- Generator: Adobe Illustrator 22.0.1, SVG Export Plug-In . SVG Version: 6.00 Build 0)  -->
<svg version="1.1" id="Layer_1" xmlns="http://www.w3.org/2000/svg" xmlns:xlink="http://www.w3.org/1999/xlink" x="0px" y="0px"
	 viewBox="0 0 1280 1024" style="enable-background:new 0 0 1280 1024;" xml:space="preserve">
<style type="text/css">
	.st0{fill:#67507F;}
	.st1{fill:#282828;}
	.st2{fill:#A458DB;}
	.st3{fill:#C46CAB;}
	.st4{fill:#1CB5EA;}
	.st5{fill:#E5E273;}
	.st6{fill:#0CC658;}
	.st7{font-family:'OpenSans-Bold';}
	.st8{font-size:33.3255px;}
	.st9{letter-spacing:9;}
	.st10{fill:#282828;stroke:#E5E5E5;stroke-width:2;stroke-miterlimit:10;}
	.st11{fill:#FFFFFF;}
	.st12{font-family:'OpenSans';}
	.st13{font-size:20px;}
	.st14{fill:none;}
</style>
<rect x="-4" y="68" class="st0" width="1280" height="512"/>
<rect x="354" y="363" class="st1" width="572.5" height="333"/>
<rect x="-4" y="-11" class="st1" width="1280" height="79"/>
<rect x="394" y="429" class="st2" width="58.4" height="126"/>
<rect x="483.8" y="466.5" class="st3" width="51.1" height="51.1"/>
<rect x="568.9" y="454" class="st4" width="76" height="76.1"/>
<rect x="817.1" y="434.8" class="st5" width="74.3" height="114.2"/>
<rect x="680.8" y="462.2" class="st6" width="99.5" height="59.6"/>
<text transform="matrix(1 0 0 1 482.6489 768.335)" class="st1 st7 st8 st9">HYPERSPACE</text>
<g>
	<rect x="11" y="4" class="st10" width="108.5" height="47"/>
	<rect x="19.7" y="16" class="st11" width="10.6" height="23"/>
	<rect x="36.1" y="22.8" class="st11" width="9.3" height="9.3"/>
	<rect x="51.6" y="20.6" class="st11" width="13.8" height="13.9"/>
	<rect x="96.8" y="17.1" class="st11" width="13.5" height="20.8"/>
	<rect x="72" y="22.1" class="st11" width="18.1" height="10.9"/>
</g>
<text transform="matrix(1 0 0 1 689.001 36.6943)" class="st11 st12 st13">GALLERY</text>
<text transform="matrix(1 0 0 1 846.6955 36.6943)" class="st11 st12 st13">DISCOVER</text>
<text transform="matrix(1 0 0 1 1017.9993 36.6943)" class="st11 st12 st13">LOGIN</text>
<text transform="matrix(1 0 0 1 1145.001 36.6943)" class="st11 st12 st13">REGISTER</text>
<rect x="124.9" y="813" class="st14" width="1049.6" height="183"/>
<text transform="matrix(1 0 0 1 124.8726 828.2363)"><tspan x="0" y="0" class="st12 st13">Lorem ipsum dolor sit amet, consectetuer adipiscing elit, sed diam nonummy nibh euismod tincidunt ut laoreet </tspan><tspan x="0" y="40" class="st12 st13">dolore magna aliquam erat volutpat. Ut wisi enim ad minim veniam, quis nostrud exerci tation ullamcorper sus</tspan><tspan x="1031.6" y="40" class="st12 st13">-</tspan><tspan x="0" y="80" class="st12 st13">cipit lobortis nisl ut aliquip ex ea commodo consequat. Duis autem vel eum iriure dolor in hendrerit in vulputate </tspan><tspan x="0" y="120" class="st12 st13">velit esse molestie consequat, vel illum dolore eu feugiat nulla facilisis at vero eros et accumsan et iusto odio </tspan><tspan x="0" y="160" class="st12 st13">dignissim qui blandit praesent luptatum zzril delenit augue duis dolore te feugait nulla facilisi.</tspan></text>
</svg>
