<?xml version="1.0" encoding="utf-8"?>
<!-- Generator: Adobe Illustrator 22.0.1, SVG Export Plug-In . SVG Version: 6.00 Build 0)  -->
<svg version="1.1" id="Layer_1" xmlns="http://www.w3.org/2000/svg" xmlns:xlink="http://www.w3.org/1999/xlink" x="0px" y="0px"
	 viewBox="0 0 1280 1024" style="enable-background:new 0 0 1280 1024;" xml:space="preserve">
<style type="text/css">
	.st0{fill:#67507F;}
	.st1{fill:#282828;}
	.st2{fill:#A458DB;}
	.st3{fill:#C46CAB;}
	.st4{fill:#1CB5EA;}
	.st5{fill:#E5E273;}
	.st6{fill:#0CC658;}
	.st7{opacity:0.8;fill:#0C0C0C;}
	.st8{fill:#282828;stroke:#E5E5E5;stroke-width:2;stroke-miterlimit:10;}
	.st9{fill:#FFFFFF;}
	.st10{font-family:'OpenSans';}
	.st11{font-size:20px;}
	.st12{fill:#282828;stroke:#A679C6;stroke-width:5;stroke-miterlimit:10;}
	.st13{fill:#5E5E5E;}
	.st14{font-size:16.697px;}
	.st15{font-size:18.4545px;}
	.st16{letter-spacing:25;}
	.st17{font-family:'OpenSans-Light';}
	.st18{font-size:16px;}
	.st19{letter-spacing:4;}
	.st20{font-family:'OpenSans-Bold';}
	.st21{font-size:33.3255px;}
	.st22{letter-spacing:9;}
	.st23{fill:none;}
</style>
<rect y="83" class="st0" width="1280" height="512"/>
<rect x="359" y="378" class="st1" width="572.5" height="333"/>
<rect x="396" y="444" class="st2" width="58.4" height="126"/>
<rect x="485.8" y="481.5" class="st3" width="51.1" height="51.1"/>
<rect x="570.9" y="469" class="st4" width="76" height="76.1"/>
<rect x="819.1" y="449.8" class="st5" width="74.3" height="114.2"/>
<rect x="682.8" y="477.2" class="st6" width="99.5" height="59.6"/>
<rect y="83" class="st7" width="1280" height="946"/>
<rect y="4" class="st1" width="1280" height="79"/>
<g>
	<rect x="15" y="19" class="st8" width="108.5" height="47"/>
	<rect x="23.7" y="31" class="st9" width="10.6" height="23"/>
	<rect x="40.1" y="37.8" class="st9" width="9.3" height="9.3"/>
	<rect x="55.6" y="35.6" class="st9" width="13.8" height="13.9"/>
	<rect x="100.8" y="32.1" class="st9" width="13.5" height="20.8"/>
	<rect x="76" y="37.1" class="st9" width="18.1" height="10.9"/>
</g>
<text transform="matrix(1 0 0 1 850.6954 51.6943)" class="st9 st10 st11">DISCOVER</text>
<g>
	<text transform="matrix(1 0 0 1 1021.9993 51.6943)" class="st5 st10 st11">LOGIN</text>
</g>
<text transform="matrix(1 0 0 1 1149.001 51.6943)" class="st9 st10 st11">REGISTER</text>
<rect x="338" y="229" class="st12" width="601.1" height="418"/>
<rect x="387.2" y="369.4" class="st9" width="503.5" height="41.3"/>
<rect x="387.2" y="461.7" class="st9" width="503.5" height="41.3"/>
<rect x="724.7" y="553.9" class="st3" width="166.1" height="41.3"/>
<text transform="matrix(1 0 0 1 398.2412 398.5234)" class="st13 st10 st14">EMAIL</text>
<text transform="matrix(1 0 0 1 781.4844 581.3115)" class="st9 st10 st15">ENTER</text>
<text transform="matrix(1 0 0 1 398.2412 489.917)"><tspan x="0" y="0" class="st13 st10 st14">PASSWORD</tspan><tspan x="89.9" y="0" class="st13 st10 st14 st16">	</tspan></text>
<g>
	<text transform="matrix(1 0 0 1 477.6484 304.5146)" class="st9 st17 st18 st19">LOGIN TO YOUR HYPERSPACE</text>
</g>
<text transform="matrix(1 0 0 1 515.6489 783.335)" class="st1 st20 st21 st22">HYPERSPACE</text>
<rect x="157.9" y="828" class="st23" width="1049.6" height="183"/>
<text transform="matrix(1 0 0 1 157.8726 843.2363)"><tspan x="0" y="0" class="st10 st11">Lorem ipsum dolor sit amet, consectetuer adipiscing elit, sed diam nonummy nibh euismod tincidunt ut laoreet </tspan><tspan x="0" y="40" class="st10 st11">dolore magna aliquam erat volutpat. Ut wisi enim ad minim veniam, quis nostrud exerci tation ullamcorper sus</tspan><tspan x="1031.6" y="40" class="st10 st11">-</tspan><tspan x="0" y="80" class="st10 st11">cipit lobortis nisl ut aliquip ex ea commodo consequat. Duis autem vel eum iriure dolor in hendrerit in vulputate </tspan><tspan x="0" y="120" class="st10 st11">velit esse molestie consequat, vel illum dolore eu feugiat nulla facilisis at vero eros et accumsan et iusto odio </tspan><tspan x="0" y="160" class="st10 st11">dignissim qui blandit praesent luptatum zzril delenit augue duis dolore te feugait nulla facilisi.</tspan></text>
</svg>
