<?xml version="1.0" encoding="utf-8"?>
<!-- Generator: Adobe Illustrator 22.0.1, SVG Export Plug-In . SVG Version: 6.00 Build 0)  -->
<svg version="1.1" id="Layer_1" xmlns="http://www.w3.org/2000/svg" xmlns:xlink="http://www.w3.org/1999/xlink" x="0px" y="0px"
	 viewBox="0 0 1280 1024" style="enable-background:new 0 0 1280 1024;" xml:space="preserve">
<style type="text/css">
	.st0{fill:#282828;}
	.st1{fill:#282828;stroke:#E5E5E5;stroke-width:2;stroke-miterlimit:10;}
	.st2{fill:#FFFFFF;}
	.st3{font-family:'OpenSans';}
	.st4{font-size:20px;}
	.st5{fill:#E5E273;}
	.st6{fill:#67507F;}
	.st7{fill:#A458DB;}
	.st8{fill:#C46CAB;}
	.st9{fill:#1CB5EA;}
	.st10{font-family:'OpenSans-Bold';}
	.st11{font-size:33.3255px;}
	.st12{letter-spacing:9;}
	.st13{fill:#0CC658;}
	.st14{opacity:0.8;fill:#0C0C0C;}
	.st15{fill:#282828;stroke:#A679C6;stroke-width:5;stroke-miterlimit:10;}
	.st16{fill:#5E5E5E;}
	.st17{font-size:16.697px;}
	.st18{font-size:18.4545px;}
	.st19{letter-spacing:25;}
	.st20{font-family:'OpenSans-Light';}
	.st21{font-size:16px;}
	.st22{letter-spacing:4;}
	.st23{fill:none;}
</style>
<rect x="-3" class="st0" width="1280" height="79"/>
<g>
	<rect x="12" y="15" class="st1" width="108.5" height="47"/>
	<rect x="20.7" y="27" class="st2" width="10.6" height="23"/>
	<rect x="37.1" y="33.8" class="st2" width="9.3" height="9.3"/>
	<rect x="52.6" y="31.6" class="st2" width="13.8" height="13.9"/>
	<rect x="97.8" y="28.1" class="st2" width="13.5" height="20.8"/>
	<rect x="73" y="33.1" class="st2" width="18.1" height="10.9"/>
</g>
<text transform="matrix(1 0 0 1 847.6953 47.6943)" class="st2 st3 st4">DISCOVER</text>
<g>
	<text transform="matrix(1 0 0 1 1018.9993 47.6943)" class="st2 st3 st4">LOGIN</text>
</g>
<g>
	<text transform="matrix(1 0 0 1 1146.001 47.6943)" class="st5 st3 st4">REGISTER</text>
</g>
<rect x="2" y="79" class="st6" width="1280" height="512"/>
<rect x="361" y="374" class="st0" width="572.5" height="333"/>
<rect x="398" y="440" class="st7" width="58.4" height="126"/>
<rect x="487.8" y="477.5" class="st8" width="51.1" height="51.1"/>
<rect x="572.9" y="465" class="st9" width="76" height="76.1"/>
<rect x="821.1" y="445.8" class="st5" width="74.3" height="114.2"/>
<text transform="matrix(1 0 0 1 517.6489 779.335)" class="st0 st10 st11 st12">HYPERSPACE</text>
<rect x="684.8" y="473.2" class="st13" width="99.5" height="59.6"/>
<rect x="-2" y="79" class="st14" width="1280" height="946"/>
<rect x="340" y="225" class="st15" width="601.1" height="533.5"/>
<rect x="389.2" y="365.4" class="st2" width="503.5" height="41.3"/>
<rect x="389.2" y="507.7" class="st2" width="503.5" height="41.3"/>
<rect x="726.7" y="669.9" class="st8" width="166.1" height="41.3"/>
<text transform="matrix(1 0 0 1 400.2412 394.5234)" class="st16 st3 st17">NAME</text>
<rect x="389.2" y="436.4" class="st2" width="503.5" height="41.3"/>
<text transform="matrix(1 0 0 1 400.2412 465.5234)" class="st16 st3 st17">EMAIL</text>
<text transform="matrix(1 0 0 1 783.4844 697.3115)" class="st2 st3 st18">ENTER</text>
<text transform="matrix(1 0 0 1 400.2412 535.917)"><tspan x="0" y="0" class="st16 st3 st17">PASSWORD</tspan><tspan x="89.9" y="0" class="st16 st3 st17 st19">	</tspan></text>
<rect x="389.2" y="587.7" class="st2" width="503.5" height="41.3"/>
<text transform="matrix(1 0 0 1 400.2412 615.917)"><tspan x="0" y="0" class="st16 st3 st17">PASSWORD</tspan><tspan x="89.9" y="0" class="st16 st3 st17 st19">	</tspan></text>
<g>
	<text transform="matrix(1 0 0 1 529.6484 300.5146)" class="st2 st20 st21 st22">CREATE AN ACCOUNT</text>
</g>
<rect x="159.9" y="824" class="st23" width="1049.6" height="183"/>
<text transform="matrix(1 0 0 1 159.8726 839.2363)"><tspan x="0" y="0" class="st3 st4">Lorem ipsum dolor sit amet, consectetuer adipiscing elit, sed diam nonummy nibh euismod tincidunt ut laoreet </tspan><tspan x="0" y="40" class="st3 st4">dolore magna aliquam erat volutpat. Ut wisi enim ad minim veniam, quis nostrud exerci tation ullamcorper sus</tspan><tspan x="1031.6" y="40" class="st3 st4">-</tspan><tspan x="0" y="80" class="st3 st4">cipit lobortis nisl ut aliquip ex ea commodo consequat. Duis autem vel eum iriure dolor in hendrerit in vulputate </tspan><tspan x="0" y="120" class="st3 st4">velit esse molestie consequat, vel illum dolore eu feugiat nulla facilisis at vero eros et accumsan et iusto odio </tspan><tspan x="0" y="160" class="st3 st4">dignissim qui blandit praesent luptatum zzril delenit augue duis dolore te feugait nulla facilisi.</tspan></text>
</svg>
