<?xml version="1.0" encoding="utf-8"?>
<!-- Generator: Adobe Illustrator 22.0.1, SVG Export Plug-In . SVG Version: 6.00 Build 0)  -->
<svg version="1.1" id="Layer_1" xmlns="http://www.w3.org/2000/svg" xmlns:xlink="http://www.w3.org/1999/xlink" x="0px" y="0px"
	 viewBox="0 0 1280 1024" style="enable-background:new 0 0 1280 1024;" xml:space="preserve">
<style type="text/css">
	.st0{fill:#E5E273;}
	.st1{font-family:'OpenSans';}
	.st2{font-size:20px;}
	.st3{fill:#282828;}
	.st4{fill:#282828;stroke:#E5E5E5;stroke-width:2;stroke-miterlimit:10;}
	.st5{fill:#FFFFFF;}
	.st6{fill:#C46CAB;}
	.st7{fill:#606060;}
	.st8{fill:none;}
	.st9{font-size:16px;}
	.st10{font-family:'OpenSans-Bold';}
	.st11{font-family:'OpenSans-Light';}
	.st12{letter-spacing:4;}
</style>
<g>
	<text transform="matrix(1 0 0 1 1146.001 47.6943)" class="st0 st1 st2">REGISTER</text>
</g>
<rect class="st3" width="1280" height="79"/>
<g>
	<rect x="15" y="15" class="st4" width="108.5" height="47"/>
	<rect x="23.7" y="27" class="st5" width="10.6" height="23"/>
	<rect x="40.1" y="33.8" class="st5" width="9.3" height="9.3"/>
	<rect x="55.6" y="31.6" class="st5" width="13.8" height="13.9"/>
	<rect x="100.8" y="28.1" class="st5" width="13.5" height="20.8"/>
	<rect x="76" y="33.1" class="st5" width="18.1" height="10.9"/>
</g>
<text transform="matrix(1 0 0 1 436.001 47.6943)" class="st5 st1 st2">GALLERY</text>
<text transform="matrix(1 0 0 1 593.6953 47.6943)" class="st0 st1 st2">DISCOVER</text>
<text transform="matrix(1 0 0 1 759.6953 47.6943)" class="st5 st1 st2">PROFESSIONAL</text>
<g>
	<text transform="matrix(1 0 0 1 954.999 47.6943)" class="st5 st1 st2">TODO</text>
</g>
<rect x="1096.1" y="18.4" class="st6" width="166.1" height="41.3"/>
<g>
	<text transform="matrix(1 0 0 1 1140.666 46.6445)" class="st5 st1 st2">LOGOUT</text>
</g>
<rect x="60" y="192" class="st7" width="241" height="311"/>
<rect x="64.6" y="556.6" class="st8" width="239.2" height="61.4"/>
<text transform="matrix(1 0 0 1 64.6289 568.7695)"><tspan x="0" y="0" class="st1 st9">Lorem ipsum dolor sit amet, </tspan><tspan x="0" y="19.2" class="st1 st9">consectetuer adipiscing elit, sed </tspan><tspan x="0" y="38.4" class="st1 st9">diam nonummy</tspan></text>
<text transform="matrix(1 0 0 1 64.2148 538.4873)" class="st10 st9">Lorem ipsum</text>
<rect x="60" y="652" class="st7" width="241" height="311"/>
<text transform="matrix(1 0 0 1 64.2148 998.4873)" class="st10 st9">Lorem ipsum</text>
<rect x="358" y="192" class="st7" width="241" height="221"/>
<rect x="362.6" y="476.6" class="st8" width="239.2" height="61.4"/>
<text transform="matrix(1 0 0 1 362.6289 488.7695)"><tspan x="0" y="0" class="st1 st9">Lorem ipsum dolor sit amet, </tspan><tspan x="0" y="19.2" class="st1 st9">consectetuer adipiscing elit, sed </tspan><tspan x="0" y="38.4" class="st1 st9">diam nonummy nibh euismod</tspan></text>
<text transform="matrix(1 0 0 1 362.2148 458.4873)" class="st10 st9">Lorem ipsum</text>
<rect x="681" y="657" class="st7" width="241" height="221"/>
<rect x="685.6" y="941.6" class="st8" width="239.2" height="61.4"/>
<text transform="matrix(1 0 0 1 685.6289 953.7695)"><tspan x="0" y="0" class="st1 st9">Lorem ipsum dolor sit amet, </tspan><tspan x="0" y="19.2" class="st1 st9">consectetuer adipiscing elit, sed </tspan><tspan x="0" y="38.4" class="st1 st9">diam nonummy nibh euismod</tspan></text>
<text transform="matrix(1 0 0 1 685.2148 923.4873)" class="st10 st9">Lorem ipsum</text>
<rect x="981" y="580" class="st7" width="241" height="221"/>
<rect x="985.6" y="864.6" class="st8" width="239.2" height="61.4"/>
<text transform="matrix(1 0 0 1 985.6289 876.7695)"><tspan x="0" y="0" class="st1 st9">Lorem ipsum dolor sit amet, </tspan><tspan x="0" y="19.2" class="st1 st9">consectetuer adipiscing elit, sed </tspan><tspan x="0" y="38.4" class="st1 st9">diam nonummy nibh euismod</tspan></text>
<text transform="matrix(1 0 0 1 985.2148 846.4873)" class="st10 st9">Lorem ipsum</text>
<rect x="979" y="192" class="st7" width="241" height="221"/>
<rect x="983.6" y="476.6" class="st8" width="239.2" height="61.4"/>
<text transform="matrix(1 0 0 1 983.6289 488.7695)"><tspan x="0" y="0" class="st1 st9">Lorem ipsum dolor sit amet, </tspan><tspan x="0" y="19.2" class="st1 st9">consectetuer adipiscing elit, sed </tspan><tspan x="0" y="38.4" class="st1 st9">diam nonummy nibh euismod</tspan></text>
<text transform="matrix(1 0 0 1 983.2148 458.4873)" class="st10 st9">Lorem ipsum</text>
<rect x="678" y="192" class="st7" width="241" height="321"/>
<rect x="682.6" y="566.6" class="st8" width="239.2" height="61.4"/>
<text transform="matrix(1 0 0 1 682.6289 578.7695)"><tspan x="0" y="0" class="st1 st9">Lorem ipsum dolor sit amet, </tspan><tspan x="0" y="19.2" class="st1 st9">consectetuer adipiscing elit, sed </tspan><tspan x="0" y="38.4" class="st1 st9">diam nonummy nibh euismod</tspan></text>
<text transform="matrix(1 0 0 1 682.2148 548.4873)" class="st10 st9">Lorem ipsum</text>
<rect x="360" y="577" class="st7" width="241" height="311"/>
<rect x="364.6" y="941.6" class="st8" width="239.2" height="61.4"/>
<text transform="matrix(1 0 0 1 364.6289 953.7695)"><tspan x="0" y="0" class="st1 st9">Lorem ipsum dolor sit amet, </tspan><tspan x="0" y="19.2" class="st1 st9">consectetuer adipiscing elit, sed </tspan><tspan x="0" y="38.4" class="st1 st9">diam nonummy</tspan></text>
<text transform="matrix(1 0 0 1 364.2148 923.4873)" class="st10 st9">Lorem ipsum</text>
<rect x="980" y="961" class="st7" width="241" height="64"/>
<text transform="matrix(1 0 0 1 1060.6484 122.5146)" class="st3 st11 st9 st12">DISCOVER ART</text>
<text transform="matrix(1 0 0 1 610.6484 155.5146)" class="st7 st11 st9 st12">THIS PAGE IS BROUGHT TO YOU BY HARVARD GALLERY</text>
</svg>
